# arrowhead — Solids が model() を測るために置く自作のモデル
# p5.js の 3D Geometries は NASA の astronaut.obj を読むが、こちらは
# 「loadModel() / model() が通るか」を測るためだけのものなので自分で書いた。
# 座標は OBJ の約束どおり y が上向き (mokume の面は y が下向き)。

v 0.0000 34.0000 0.0000
v 30.0000 -4.0000 0.0000
v 0.0000 -4.0000 16.0000
v -30.0000 -4.0000 0.0000
v 0.0000 -4.0000 -16.0000
v 7.0000 -34.0000 0.0000
v 0.0000 -34.0000 4.0000
v -7.0000 -34.0000 0.0000
v 0.0000 -34.0000 -4.0000

vn 0.441129 0.348259 0.827116
vn 0.463725 -0.355523 0.811519
vn 0.443760 -0.332820 0.832050
vn -0.441129 0.348259 0.827116
vn -0.468678 -0.328075 0.820187
vn -0.442660 -0.339373 0.829987
vn -0.441129 0.348259 -0.827116
vn -0.463725 -0.355523 -0.811519
vn -0.443760 -0.332820 -0.832050
vn 0.441129 0.348259 -0.827116
vn 0.468678 -0.328075 -0.820187
vn 0.442660 -0.339373 -0.829987
vn 0.000000 -1.000000 0.000000
vn -0.000000 -1.000000 0.000000

f 1//1 3//1 2//1
f 2//2 7//2 6//2
f 2//3 3//3 7//3
f 1//4 4//4 3//4
f 3//5 8//5 7//5
f 3//6 4//6 8//6
f 1//7 5//7 4//7
f 4//8 9//8 8//8
f 4//9 5//9 9//9
f 1//10 2//10 5//10
f 5//11 6//11 9//11
f 5//12 2//12 6//12
f 6//13 7//13 8//13
f 6//14 8//14 9//14

